<?xml version="1.0" encoding="utf-8" standalone="no"?>
<!DOCTYPE svg PUBLIC "-//W3C//DTD SVG 1.1//EN"
  "http://www.w3.org/Graphics/SVG/1.1/DTD/svg11.dtd">
<!-- Created with matplotlib (https://matplotlib.org/) -->
<svg height="288pt" version="1.1" viewBox="0 0 432 288" width="432pt" xmlns="http://www.w3.org/2000/svg" xmlns:xlink="http://www.w3.org/1999/xlink">
 <metadata>
  <rdf:RDF xmlns:cc="http://creativecommons.org/ns#" xmlns:dc="http://purl.org/dc/elements/1.1/" xmlns:rdf="http://www.w3.org/1999/02/22-rdf-syntax-ns#">
   <cc:Work>
    <dc:type rdf:resource="http://purl.org/dc/dcmitype/StillImage"/>
    <dc:date>2021-06-02T15:50:38.107166</dc:date>
    <dc:format>image/svg+xml</dc:format>
    <dc:creator>
     <cc:Agent>
      <dc:title>Matplotlib v3.3.4, https://matplotlib.org/</dc:title>
     </cc:Agent>
    </dc:creator>
   </cc:Work>
  </rdf:RDF>
 </metadata>
 <defs>
  <style type="text/css">*{stroke-linecap:butt;stroke-linejoin:round;}</style>
 </defs>
 <g id="figure_1">
  <g id="patch_1">
   <path d="M 0 288 
L 432 288 
L 432 0 
L 0 0 
z
" style="fill:#f0f0f0;"/>
  </g>
  <g id="axes_1">
   <g id="patch_2">
    <path d="M 34.56 267.84 
L 410.4 267.84 
L 410.4 34.56 
L 34.56 34.56 
z
" style="fill:#f0f0f0;"/>
   </g>
   <g id="matplotlib.axis_1">
    <g id="xtick_1">
     <g id="line2d_1">
      <path clip-path="url(#pa6c53d64b9)" d="M 51.643636 267.84 
L 51.643636 34.56 
" style="fill:none;stroke:#cbcbcb;"/>
     </g>
     <g id="line2d_2"/>
     <g id="text_1">
      <!-- 2016-08-23 -->
      <g transform="translate(25.609511 336.393603)rotate(-45)scale(0.14 -0.14)">
       <defs>
        <path d="M 19.1875 8.296875 
L 53.609375 8.296875 
L 53.609375 0 
L 7.328125 0 
L 7.328125 8.296875 
Q 12.9375 14.109375 22.625 23.890625 
Q 32.328125 33.6875 34.8125 36.53125 
Q 39.546875 41.84375 41.421875 45.53125 
Q 43.3125 49.21875 43.3125 52.78125 
Q 43.3125 58.59375 39.234375 62.25 
Q 35.15625 65.921875 28.609375 65.921875 
Q 23.96875 65.921875 18.8125 64.3125 
Q 13.671875 62.703125 7.8125 59.421875 
L 7.8125 69.390625 
Q 13.765625 71.78125 18.9375 73 
Q 24.125 74.21875 28.421875 74.21875 
Q 39.75 74.21875 46.484375 68.546875 
Q 53.21875 62.890625 53.21875 53.421875 
Q 53.21875 48.921875 51.53125 44.890625 
Q 49.859375 40.875 45.40625 35.40625 
Q 44.1875 33.984375 37.640625 27.21875 
Q 31.109375 20.453125 19.1875 8.296875 
z
" id="DejaVuSans-50"/>
        <path d="M 31.78125 66.40625 
Q 24.171875 66.40625 20.328125 58.90625 
Q 16.5 51.421875 16.5 36.375 
Q 16.5 21.390625 20.328125 13.890625 
Q 24.171875 6.390625 31.78125 6.390625 
Q 39.453125 6.390625 43.28125 13.890625 
Q 47.125 21.390625 47.125 36.375 
Q 47.125 51.421875 43.28125 58.90625 
Q 39.453125 66.40625 31.78125 66.40625 
z
M 31.78125 74.21875 
Q 44.046875 74.21875 50.515625 64.515625 
Q 56.984375 54.828125 56.984375 36.375 
Q 56.984375 17.96875 50.515625 8.265625 
Q 44.046875 -1.421875 31.78125 -1.421875 
Q 19.53125 -1.421875 13.0625 8.265625 
Q 6.59375 17.96875 6.59375 36.375 
Q 6.59375 54.828125 13.0625 64.515625 
Q 19.53125 74.21875 31.78125 74.21875 
z
" id="DejaVuSans-48"/>
        <path d="M 12.40625 8.296875 
L 28.515625 8.296875 
L 28.515625 63.921875 
L 10.984375 60.40625 
L 10.984375 69.390625 
L 28.421875 72.90625 
L 38.28125 72.90625 
L 38.28125 8.296875 
L 54.390625 8.296875 
L 54.390625 0 
L 12.40625 0 
z
" id="DejaVuSans-49"/>
        <path d="M 33.015625 40.375 
Q 26.375 40.375 22.484375 35.828125 
Q 18.609375 31.296875 18.609375 23.390625 
Q 18.609375 15.53125 22.484375 10.953125 
Q 26.375 6.390625 33.015625 6.390625 
Q 39.65625 6.390625 43.53125 10.953125 
Q 47.40625 15.53125 47.40625 23.390625 
Q 47.40625 31.296875 43.53125 35.828125 
Q 39.65625 40.375 33.015625 40.375 
z
M 52.59375 71.296875 
L 52.59375 62.3125 
Q 48.875 64.0625 45.09375 64.984375 
Q 41.3125 65.921875 37.59375 65.921875 
Q 27.828125 65.921875 22.671875 59.328125 
Q 17.53125 52.734375 16.796875 39.40625 
Q 19.671875 43.65625 24.015625 45.921875 
Q 28.375 48.1875 33.59375 48.1875 
Q 44.578125 48.1875 50.953125 41.515625 
Q 57.328125 34.859375 57.328125 23.390625 
Q 57.328125 12.15625 50.6875 5.359375 
Q 44.046875 -1.421875 33.015625 -1.421875 
Q 20.359375 -1.421875 13.671875 8.265625 
Q 6.984375 17.96875 6.984375 36.375 
Q 6.984375 53.65625 15.1875 63.9375 
Q 23.390625 74.21875 37.203125 74.21875 
Q 40.921875 74.21875 44.703125 73.484375 
Q 48.484375 72.75 52.59375 71.296875 
z
" id="DejaVuSans-54"/>
        <path d="M 4.890625 31.390625 
L 31.203125 31.390625 
L 31.203125 23.390625 
L 4.890625 23.390625 
z
" id="DejaVuSans-45"/>
        <path d="M 31.78125 34.625 
Q 24.75 34.625 20.71875 30.859375 
Q 16.703125 27.09375 16.703125 20.515625 
Q 16.703125 13.921875 20.71875 10.15625 
Q 24.75 6.390625 31.78125 6.390625 
Q 38.8125 6.390625 42.859375 10.171875 
Q 46.921875 13.96875 46.921875 20.515625 
Q 46.921875 27.09375 42.890625 30.859375 
Q 38.875 34.625 31.78125 34.625 
z
M 21.921875 38.8125 
Q 15.578125 40.375 12.03125 44.71875 
Q 8.5 49.078125 8.5 55.328125 
Q 8.5 64.0625 14.71875 69.140625 
Q 20.953125 74.21875 31.78125 74.21875 
Q 42.671875 74.21875 48.875 69.140625 
Q 55.078125 64.0625 55.078125 55.328125 
Q 55.078125 49.078125 51.53125 44.71875 
Q 48 40.375 41.703125 38.8125 
Q 48.828125 37.15625 52.796875 32.3125 
Q 56.78125 27.484375 56.78125 20.515625 
Q 56.78125 9.90625 50.3125 4.234375 
Q 43.84375 -1.421875 31.78125 -1.421875 
Q 19.734375 -1.421875 13.25 4.234375 
Q 6.78125 9.90625 6.78125 20.515625 
Q 6.78125 27.484375 10.78125 32.3125 
Q 14.796875 37.15625 21.921875 38.8125 
z
M 18.3125 54.390625 
Q 18.3125 48.734375 21.84375 45.5625 
Q 25.390625 42.390625 31.78125 42.390625 
Q 38.140625 42.390625 41.71875 45.5625 
Q 45.3125 48.734375 45.3125 54.390625 
Q 45.3125 60.0625 41.71875 63.234375 
Q 38.140625 66.40625 31.78125 66.40625 
Q 25.390625 66.40625 21.84375 63.234375 
Q 18.3125 60.0625 18.3125 54.390625 
z
" id="DejaVuSans-56"/>
        <path d="M 40.578125 39.3125 
Q 47.65625 37.796875 51.625 33 
Q 55.609375 28.21875 55.609375 21.1875 
Q 55.609375 10.40625 48.1875 4.484375 
Q 40.765625 -1.421875 27.09375 -1.421875 
Q 22.515625 -1.421875 17.65625 -0.515625 
Q 12.796875 0.390625 7.625 2.203125 
L 7.625 11.71875 
Q 11.71875 9.328125 16.59375 8.109375 
Q 21.484375 6.890625 26.8125 6.890625 
Q 36.078125 6.890625 40.9375 10.546875 
Q 45.796875 14.203125 45.796875 21.1875 
Q 45.796875 27.640625 41.28125 31.265625 
Q 36.765625 34.90625 28.71875 34.90625 
L 20.21875 34.90625 
L 20.21875 43.015625 
L 29.109375 43.015625 
Q 36.375 43.015625 40.234375 45.921875 
Q 44.09375 48.828125 44.09375 54.296875 
Q 44.09375 59.90625 40.109375 62.90625 
Q 36.140625 65.921875 28.71875 65.921875 
Q 24.65625 65.921875 20.015625 65.03125 
Q 15.375 64.15625 9.8125 62.3125 
L 9.8125 71.09375 
Q 15.4375 72.65625 20.34375 73.4375 
Q 25.25 74.21875 29.59375 74.21875 
Q 40.828125 74.21875 47.359375 69.109375 
Q 53.90625 64.015625 53.90625 55.328125 
Q 53.90625 49.265625 50.4375 45.09375 
Q 46.96875 40.921875 40.578125 39.3125 
z
" id="DejaVuSans-51"/>
       </defs>
       <use xlink:href="#DejaVuSans-50"/>
       <use x="63.623047" xlink:href="#DejaVuSans-48"/>
       <use x="127.246094" xlink:href="#DejaVuSans-49"/>
       <use x="190.869141" xlink:href="#DejaVuSans-54"/>
       <use x="254.492188" xlink:href="#DejaVuSans-45"/>
       <use x="290.576172" xlink:href="#DejaVuSans-48"/>
       <use x="354.199219" xlink:href="#DejaVuSans-56"/>
       <use x="417.822266" xlink:href="#DejaVuSans-45"/>
       <use x="453.90625" xlink:href="#DejaVuSans-50"/>
       <use x="517.529297" xlink:href="#DejaVuSans-51"/>
      </g>
     </g>
    </g>
    <g id="xtick_2">
     <g id="line2d_3">
      <path clip-path="url(#pa6c53d64b9)" d="M 136.216094 267.84 
L 136.216094 34.56 
" style="fill:none;stroke:#cbcbcb;"/>
     </g>
     <g id="line2d_4"/>
     <g id="text_2">
      <!-- 2016-11-16 -->
      <g transform="translate(110.181969 336.393603)rotate(-45)scale(0.14 -0.14)">
       <use xlink:href="#DejaVuSans-50"/>
       <use x="63.623047" xlink:href="#DejaVuSans-48"/>
       <use x="127.246094" xlink:href="#DejaVuSans-49"/>
       <use x="190.869141" xlink:href="#DejaVuSans-54"/>
       <use x="254.492188" xlink:href="#DejaVuSans-45"/>
       <use x="290.576172" xlink:href="#DejaVuSans-49"/>
       <use x="354.199219" xlink:href="#DejaVuSans-49"/>
       <use x="417.822266" xlink:href="#DejaVuSans-45"/>
       <use x="453.90625" xlink:href="#DejaVuSans-49"/>
       <use x="517.529297" xlink:href="#DejaVuSans-54"/>
      </g>
     </g>
    </g>
    <g id="xtick_3">
     <g id="line2d_5">
      <path clip-path="url(#pa6c53d64b9)" d="M 220.788551 267.84 
L 220.788551 34.56 
" style="fill:none;stroke:#cbcbcb;"/>
     </g>
     <g id="line2d_6"/>
     <g id="text_3">
      <!-- 2017-02-13 -->
      <g transform="translate(194.754426 336.393603)rotate(-45)scale(0.14 -0.14)">
       <defs>
        <path d="M 8.203125 72.90625 
L 55.078125 72.90625 
L 55.078125 68.703125 
L 28.609375 0 
L 18.3125 0 
L 43.21875 64.59375 
L 8.203125 64.59375 
z
" id="DejaVuSans-55"/>
       </defs>
       <use xlink:href="#DejaVuSans-50"/>
       <use x="63.623047" xlink:href="#DejaVuSans-48"/>
       <use x="127.246094" xlink:href="#DejaVuSans-49"/>
       <use x="190.869141" xlink:href="#DejaVuSans-55"/>
       <use x="254.492188" xlink:href="#DejaVuSans-45"/>
       <use x="290.576172" xlink:href="#DejaVuSans-48"/>
       <use x="354.199219" xlink:href="#DejaVuSans-50"/>
       <use x="417.822266" xlink:href="#DejaVuSans-45"/>
       <use x="453.90625" xlink:href="#DejaVuSans-49"/>
       <use x="517.529297" xlink:href="#DejaVuSans-51"/>
      </g>
     </g>
    </g>
    <g id="xtick_4">
     <g id="line2d_7">
      <path clip-path="url(#pa6c53d64b9)" d="M 305.361008 267.84 
L 305.361008 34.56 
" style="fill:none;stroke:#cbcbcb;"/>
     </g>
     <g id="line2d_8"/>
     <g id="text_4">
      <!-- 2017-05-14 -->
      <g transform="translate(279.326883 336.393603)rotate(-45)scale(0.14 -0.14)">
       <defs>
        <path d="M 10.796875 72.90625 
L 49.515625 72.90625 
L 49.515625 64.59375 
L 19.828125 64.59375 
L 19.828125 46.734375 
Q 21.96875 47.46875 24.109375 47.828125 
Q 26.265625 48.1875 28.421875 48.1875 
Q 40.625 48.1875 47.75 41.5 
Q 54.890625 34.8125 54.890625 23.390625 
Q 54.890625 11.625 47.5625 5.09375 
Q 40.234375 -1.421875 26.90625 -1.421875 
Q 22.3125 -1.421875 17.546875 -0.640625 
Q 12.796875 0.140625 7.71875 1.703125 
L 7.71875 11.625 
Q 12.109375 9.234375 16.796875 8.0625 
Q 21.484375 6.890625 26.703125 6.890625 
Q 35.15625 6.890625 40.078125 11.328125 
Q 45.015625 15.765625 45.015625 23.390625 
Q 45.015625 31 40.078125 35.4375 
Q 35.15625 39.890625 26.703125 39.890625 
Q 22.75 39.890625 18.8125 39.015625 
Q 14.890625 38.140625 10.796875 36.28125 
z
" id="DejaVuSans-53"/>
        <path d="M 37.796875 64.3125 
L 12.890625 25.390625 
L 37.796875 25.390625 
z
M 35.203125 72.90625 
L 47.609375 72.90625 
L 47.609375 25.390625 
L 58.015625 25.390625 
L 58.015625 17.1875 
L 47.609375 17.1875 
L 47.609375 0 
L 37.796875 0 
L 37.796875 17.1875 
L 4.890625 17.1875 
L 4.890625 26.703125 
z
" id="DejaVuSans-52"/>
       </defs>
       <use xlink:href="#DejaVuSans-50"/>
       <use x="63.623047" xlink:href="#DejaVuSans-48"/>
       <use x="127.246094" xlink:href="#DejaVuSans-49"/>
       <use x="190.869141" xlink:href="#DejaVuSans-55"/>
       <use x="254.492188" xlink:href="#DejaVuSans-45"/>
       <use x="290.576172" xlink:href="#DejaVuSans-48"/>
       <use x="354.199219" xlink:href="#DejaVuSans-53"/>
       <use x="417.822266" xlink:href="#DejaVuSans-45"/>
       <use x="453.90625" xlink:href="#DejaVuSans-49"/>
       <use x="517.529297" xlink:href="#DejaVuSans-52"/>
      </g>
     </g>
    </g>
    <g id="xtick_5">
     <g id="line2d_9">
      <path clip-path="url(#pa6c53d64b9)" d="M 389.933465 267.84 
L 389.933465 34.56 
" style="fill:none;stroke:#cbcbcb;"/>
     </g>
     <g id="line2d_10"/>
     <g id="text_5">
      <!-- 2017-08-17 -->
      <g transform="translate(363.89934 336.393603)rotate(-45)scale(0.14 -0.14)">
       <use xlink:href="#DejaVuSans-50"/>
       <use x="63.623047" xlink:href="#DejaVuSans-48"/>
       <use x="127.246094" xlink:href="#DejaVuSans-49"/>
       <use x="190.869141" xlink:href="#DejaVuSans-55"/>
       <use x="254.492188" xlink:href="#DejaVuSans-45"/>
       <use x="290.576172" xlink:href="#DejaVuSans-48"/>
       <use x="354.199219" xlink:href="#DejaVuSans-56"/>
       <use x="417.822266" xlink:href="#DejaVuSans-45"/>
       <use x="453.90625" xlink:href="#DejaVuSans-49"/>
       <use x="517.529297" xlink:href="#DejaVuSans-55"/>
      </g>
     </g>
    </g>
    <g id="text_6">
     <!-- date -->
     <g transform="translate(203.538 355.217763)scale(0.168 -0.168)">
      <defs>
       <path d="M 45.40625 46.390625 
L 45.40625 75.984375 
L 54.390625 75.984375 
L 54.390625 0 
L 45.40625 0 
L 45.40625 8.203125 
Q 42.578125 3.328125 38.25 0.953125 
Q 33.9375 -1.421875 27.875 -1.421875 
Q 17.96875 -1.421875 11.734375 6.484375 
Q 5.515625 14.40625 5.515625 27.296875 
Q 5.515625 40.1875 11.734375 48.09375 
Q 17.96875 56 27.875 56 
Q 33.9375 56 38.25 53.625 
Q 42.578125 51.265625 45.40625 46.390625 
z
M 14.796875 27.296875 
Q 14.796875 17.390625 18.875 11.75 
Q 22.953125 6.109375 30.078125 6.109375 
Q 37.203125 6.109375 41.296875 11.75 
Q 45.40625 17.390625 45.40625 27.296875 
Q 45.40625 37.203125 41.296875 42.84375 
Q 37.203125 48.484375 30.078125 48.484375 
Q 22.953125 48.484375 18.875 42.84375 
Q 14.796875 37.203125 14.796875 27.296875 
z
" id="DejaVuSans-100"/>
       <path d="M 34.28125 27.484375 
Q 23.390625 27.484375 19.1875 25 
Q 14.984375 22.515625 14.984375 16.5 
Q 14.984375 11.71875 18.140625 8.90625 
Q 21.296875 6.109375 26.703125 6.109375 
Q 34.1875 6.109375 38.703125 11.40625 
Q 43.21875 16.703125 43.21875 25.484375 
L 43.21875 27.484375 
z
M 52.203125 31.203125 
L 52.203125 0 
L 43.21875 0 
L 43.21875 8.296875 
Q 40.140625 3.328125 35.546875 0.953125 
Q 30.953125 -1.421875 24.3125 -1.421875 
Q 15.921875 -1.421875 10.953125 3.296875 
Q 6 8.015625 6 15.921875 
Q 6 25.140625 12.171875 29.828125 
Q 18.359375 34.515625 30.609375 34.515625 
L 43.21875 34.515625 
L 43.21875 35.40625 
Q 43.21875 41.609375 39.140625 45 
Q 35.0625 48.390625 27.6875 48.390625 
Q 23 48.390625 18.546875 47.265625 
Q 14.109375 46.140625 10.015625 43.890625 
L 10.015625 52.203125 
Q 14.9375 54.109375 19.578125 55.046875 
Q 24.21875 56 28.609375 56 
Q 40.484375 56 46.34375 49.84375 
Q 52.203125 43.703125 52.203125 31.203125 
z
" id="DejaVuSans-97"/>
       <path d="M 18.3125 70.21875 
L 18.3125 54.6875 
L 36.8125 54.6875 
L 36.8125 47.703125 
L 18.3125 47.703125 
L 18.3125 18.015625 
Q 18.3125 11.328125 20.140625 9.421875 
Q 21.96875 7.515625 27.59375 7.515625 
L 36.8125 7.515625 
L 36.8125 0 
L 27.59375 0 
Q 17.1875 0 13.234375 3.875 
Q 9.28125 7.765625 9.28125 18.015625 
L 9.28125 47.703125 
L 2.6875 47.703125 
L 2.6875 54.6875 
L 9.28125 54.6875 
L 9.28125 70.21875 
z
" id="DejaVuSans-116"/>
       <path d="M 56.203125 29.59375 
L 56.203125 25.203125 
L 14.890625 25.203125 
Q 15.484375 15.921875 20.484375 11.0625 
Q 25.484375 6.203125 34.421875 6.203125 
Q 39.59375 6.203125 44.453125 7.46875 
Q 49.3125 8.734375 54.109375 11.28125 
L 54.109375 2.78125 
Q 49.265625 0.734375 44.1875 -0.34375 
Q 39.109375 -1.421875 33.890625 -1.421875 
Q 20.796875 -1.421875 13.15625 6.1875 
Q 5.515625 13.8125 5.515625 26.8125 
Q 5.515625 40.234375 12.765625 48.109375 
Q 20.015625 56 32.328125 56 
Q 43.359375 56 49.78125 48.890625 
Q 56.203125 41.796875 56.203125 29.59375 
z
M 47.21875 32.234375 
Q 47.125 39.59375 43.09375 43.984375 
Q 39.0625 48.390625 32.421875 48.390625 
Q 24.90625 48.390625 20.390625 44.140625 
Q 15.875 39.890625 15.1875 32.171875 
z
" id="DejaVuSans-101"/>
      </defs>
      <use xlink:href="#DejaVuSans-100"/>
      <use x="63.476562" xlink:href="#DejaVuSans-97"/>
      <use x="124.755859" xlink:href="#DejaVuSans-116"/>
      <use x="163.964844" xlink:href="#DejaVuSans-101"/>
     </g>
    </g>
   </g>
   <g id="matplotlib.axis_2">
    <g id="ytick_1">
     <g id="line2d_11">
      <path clip-path="url(#pa6c53d64b9)" d="M 34.56 257.236364 
L 410.4 257.236364 
" style="fill:none;stroke:#cbcbcb;"/>
     </g>
     <g id="line2d_12"/>
     <g id="text_7">
      <!-- 0 -->
      <g transform="translate(22.1525 262.55527)scale(0.14 -0.14)">
       <use xlink:href="#DejaVuSans-48"/>
      </g>
     </g>
    </g>
    <g id="ytick_2">
     <g id="line2d_13">
      <path clip-path="url(#pa6c53d64b9)" d="M 34.56 225.583718 
L 410.4 225.583718 
" style="fill:none;stroke:#cbcbcb;"/>
     </g>
     <g id="line2d_14"/>
     <g id="text_8">
      <!-- 1 -->
      <g transform="translate(22.1525 230.902624)scale(0.14 -0.14)">
       <use xlink:href="#DejaVuSans-49"/>
      </g>
     </g>
    </g>
    <g id="ytick_3">
     <g id="line2d_15">
      <path clip-path="url(#pa6c53d64b9)" d="M 34.56 193.931072 
L 410.4 193.931072 
" style="fill:none;stroke:#cbcbcb;"/>
     </g>
     <g id="line2d_16"/>
     <g id="text_9">
      <!-- 2 -->
      <g transform="translate(22.1525 199.249978)scale(0.14 -0.14)">
       <use xlink:href="#DejaVuSans-50"/>
      </g>
     </g>
    </g>
    <g id="ytick_4">
     <g id="line2d_17">
      <path clip-path="url(#pa6c53d64b9)" d="M 34.56 162.278426 
L 410.4 162.278426 
" style="fill:none;stroke:#cbcbcb;"/>
     </g>
     <g id="line2d_18"/>
     <g id="text_10">
      <!-- 3 -->
      <g transform="translate(22.1525 167.597332)scale(0.14 -0.14)">
       <use xlink:href="#DejaVuSans-51"/>
      </g>
     </g>
    </g>
    <g id="ytick_5">
     <g id="line2d_19">
      <path clip-path="url(#pa6c53d64b9)" d="M 34.56 130.62578 
L 410.4 130.62578 
" style="fill:none;stroke:#cbcbcb;"/>
     </g>
     <g id="line2d_20"/>
     <g id="text_11">
      <!-- 4 -->
      <g transform="translate(22.1525 135.944686)scale(0.14 -0.14)">
       <use xlink:href="#DejaVuSans-52"/>
      </g>
     </g>
    </g>
    <g id="ytick_6">
     <g id="line2d_21">
      <path clip-path="url(#pa6c53d64b9)" d="M 34.56 98.973134 
L 410.4 98.973134 
" style="fill:none;stroke:#cbcbcb;"/>
     </g>
     <g id="line2d_22"/>
     <g id="text_12">
      <!-- 5 -->
      <g transform="translate(22.1525 104.292041)scale(0.14 -0.14)">
       <use xlink:href="#DejaVuSans-53"/>
      </g>
     </g>
    </g>
    <g id="ytick_7">
     <g id="line2d_23">
      <path clip-path="url(#pa6c53d64b9)" d="M 34.56 67.320488 
L 410.4 67.320488 
" style="fill:none;stroke:#cbcbcb;"/>
     </g>
     <g id="line2d_24"/>
     <g id="text_13">
      <!-- 6 -->
      <g transform="translate(22.1525 72.639395)scale(0.14 -0.14)">
       <use xlink:href="#DejaVuSans-54"/>
      </g>
     </g>
    </g>
    <g id="ytick_8">
     <g id="line2d_25">
      <path clip-path="url(#pa6c53d64b9)" d="M 34.56 35.667843 
L 410.4 35.667843 
" style="fill:none;stroke:#cbcbcb;"/>
     </g>
     <g id="line2d_26"/>
     <g id="text_14">
      <!-- 7 -->
      <g transform="translate(22.1525 40.986749)scale(0.14 -0.14)">
       <use xlink:href="#DejaVuSans-55"/>
      </g>
     </g>
    </g>
    <g id="text_15">
     <!-- inches -->
     <g transform="translate(14.658625 178.343813)rotate(-90)scale(0.168 -0.168)">
      <defs>
       <path d="M 9.421875 54.6875 
L 18.40625 54.6875 
L 18.40625 0 
L 9.421875 0 
z
M 9.421875 75.984375 
L 18.40625 75.984375 
L 18.40625 64.59375 
L 9.421875 64.59375 
z
" id="DejaVuSans-105"/>
       <path d="M 54.890625 33.015625 
L 54.890625 0 
L 45.90625 0 
L 45.90625 32.71875 
Q 45.90625 40.484375 42.875 44.328125 
Q 39.84375 48.1875 33.796875 48.1875 
Q 26.515625 48.1875 22.3125 43.546875 
Q 18.109375 38.921875 18.109375 30.90625 
L 18.109375 0 
L 9.078125 0 
L 9.078125 54.6875 
L 18.109375 54.6875 
L 18.109375 46.1875 
Q 21.34375 51.125 25.703125 53.5625 
Q 30.078125 56 35.796875 56 
Q 45.21875 56 50.046875 50.171875 
Q 54.890625 44.34375 54.890625 33.015625 
z
" id="DejaVuSans-110"/>
       <path d="M 48.78125 52.59375 
L 48.78125 44.1875 
Q 44.96875 46.296875 41.140625 47.34375 
Q 37.3125 48.390625 33.40625 48.390625 
Q 24.65625 48.390625 19.8125 42.84375 
Q 14.984375 37.3125 14.984375 27.296875 
Q 14.984375 17.28125 19.8125 11.734375 
Q 24.65625 6.203125 33.40625 6.203125 
Q 37.3125 6.203125 41.140625 7.25 
Q 44.96875 8.296875 48.78125 10.40625 
L 48.78125 2.09375 
Q 45.015625 0.34375 40.984375 -0.53125 
Q 36.96875 -1.421875 32.421875 -1.421875 
Q 20.0625 -1.421875 12.78125 6.34375 
Q 5.515625 14.109375 5.515625 27.296875 
Q 5.515625 40.671875 12.859375 48.328125 
Q 20.21875 56 33.015625 56 
Q 37.15625 56 41.109375 55.140625 
Q 45.0625 54.296875 48.78125 52.59375 
z
" id="DejaVuSans-99"/>
       <path d="M 54.890625 33.015625 
L 54.890625 0 
L 45.90625 0 
L 45.90625 32.71875 
Q 45.90625 40.484375 42.875 44.328125 
Q 39.84375 48.1875 33.796875 48.1875 
Q 26.515625 48.1875 22.3125 43.546875 
Q 18.109375 38.921875 18.109375 30.90625 
L 18.109375 0 
L 9.078125 0 
L 9.078125 75.984375 
L 18.109375 75.984375 
L 18.109375 46.1875 
Q 21.34375 51.125 25.703125 53.5625 
Q 30.078125 56 35.796875 56 
Q 45.21875 56 50.046875 50.171875 
Q 54.890625 44.34375 54.890625 33.015625 
z
" id="DejaVuSans-104"/>
       <path d="M 44.28125 53.078125 
L 44.28125 44.578125 
Q 40.484375 46.53125 36.375 47.5 
Q 32.28125 48.484375 27.875 48.484375 
Q 21.1875 48.484375 17.84375 46.4375 
Q 14.5 44.390625 14.5 40.28125 
Q 14.5 37.15625 16.890625 35.375 
Q 19.28125 33.59375 26.515625 31.984375 
L 29.59375 31.296875 
Q 39.15625 29.25 43.1875 25.515625 
Q 47.21875 21.78125 47.21875 15.09375 
Q 47.21875 7.46875 41.1875 3.015625 
Q 35.15625 -1.421875 24.609375 -1.421875 
Q 20.21875 -1.421875 15.453125 -0.5625 
Q 10.6875 0.296875 5.421875 2 
L 5.421875 11.28125 
Q 10.40625 8.6875 15.234375 7.390625 
Q 20.0625 6.109375 24.8125 6.109375 
Q 31.15625 6.109375 34.5625 8.28125 
Q 37.984375 10.453125 37.984375 14.40625 
Q 37.984375 18.0625 35.515625 20.015625 
Q 33.0625 21.96875 24.703125 23.78125 
L 21.578125 24.515625 
Q 13.234375 26.265625 9.515625 29.90625 
Q 5.8125 33.546875 5.8125 39.890625 
Q 5.8125 47.609375 11.28125 51.796875 
Q 16.75 56 26.8125 56 
Q 31.78125 56 36.171875 55.265625 
Q 40.578125 54.546875 44.28125 53.078125 
z
" id="DejaVuSans-115"/>
      </defs>
      <use xlink:href="#DejaVuSans-105"/>
      <use x="27.783203" xlink:href="#DejaVuSans-110"/>
      <use x="91.162109" xlink:href="#DejaVuSans-99"/>
      <use x="146.142578" xlink:href="#DejaVuSans-104"/>
      <use x="209.521484" xlink:href="#DejaVuSans-101"/>
      <use x="271.044922" xlink:href="#DejaVuSans-115"/>
     </g>
    </g>
   </g>
   <g id="line2d_27">
    <path clip-path="url(#pa6c53d64b9)" d="M 51.643636 257.236364 
L 51.812781 200.578128 
L 51.981926 255.653731 
L 52.151071 252.488467 
L 52.320216 235.079512 
L 52.489361 256.603311 
L 52.658506 254.704152 
L 52.827651 189.183175 
L 52.996796 185.068331 
L 53.165941 211.340027 
L 53.335086 218.620136 
L 53.50423 189.183175 
L 53.673375 254.704152 
L 53.84252 257.236364 
L 54.011665 250.589308 
L 54.349955 257.236364 
L 54.5191 253.754573 
L 55.19568 257.236364 
L 55.364824 255.970258 
L 55.703114 257.236364 
L 55.872259 251.538887 
L 56.041404 253.438046 
L 56.210549 257.236364 
L 56.379694 257.236364 
L 56.548839 256.603311 
L 56.717984 238.244776 
L 56.887129 252.804993 
L 57.056274 256.919837 
L 57.225419 252.804993 
L 57.394563 252.804993 
L 57.563708 191.715387 
L 57.732853 257.236364 
L 57.901998 255.970258 
L 58.071143 257.236364 
L 58.240288 251.855414 
L 58.409433 228.748982 
L 58.747723 257.236364 
L 58.916868 256.603311 
L 59.086013 257.236364 
L 59.255158 255.653731 
L 59.424302 257.236364 
L 59.593447 257.236364 
L 59.931737 249.639729 
L 60.100882 253.12152 
L 60.270027 179.370855 
L 60.439172 249.323202 
L 60.608317 257.236364 
L 60.777462 256.603311 
L 60.946607 257.236364 
L 61.115752 256.919837 
L 61.284896 257.236364 
L 61.454041 257.236364 
L 61.623186 256.286784 
L 61.961476 256.919837 
L 62.130621 251.222361 
L 62.299766 225.583718 
L 62.468911 254.704152 
L 62.638056 253.438046 
L 62.807201 257.236364 
L 62.976346 255.020678 
L 63.145491 256.286784 
L 63.314635 252.804993 
L 63.48378 233.813406 
L 63.652925 256.286784 
L 63.82207 243.309199 
L 63.991215 256.603311 
L 64.16036 256.286784 
L 64.49865 251.538887 
L 64.667795 255.653731 
L 64.83694 256.286784 
L 65.006085 225.583718 
L 65.17523 253.754573 
L 65.344374 255.970258 
L 65.513519 252.17194 
L 65.682664 255.653731 
L 65.851809 253.754573 
L 66.020954 254.071099 
L 66.190099 214.505292 
L 66.359244 249.956255 
L 66.697534 256.919837 
L 67.035824 250.272782 
L 67.204968 256.919837 
L 67.374113 257.236364 
L 67.712403 246.157938 
L 67.881548 248.057096 
L 68.050693 256.919837 
L 68.219838 256.286784 
L 68.388983 252.17194 
L 68.558128 257.236364 
L 68.727273 252.804993 
L 68.896418 220.519294 
L 69.065563 256.919837 
L 69.234707 254.387626 
L 69.403852 247.74057 
L 69.572997 253.438046 
L 69.742142 251.538887 
L 69.911287 255.653731 
L 70.249577 224.317612 
L 70.418722 255.970258 
L 70.587867 247.424043 
L 70.757012 257.236364 
L 70.926157 252.488467 
L 71.095302 256.603311 
L 71.264446 219.253189 
L 71.433591 247.107517 
L 71.602736 242.676147 
L 71.771881 246.474464 
L 71.941026 245.524885 
L 72.110171 215.454871 
L 72.279316 228.748982 
L 72.448461 219.569715 
L 72.617606 198.995495 
L 72.786751 45.163636 
L 73.125041 243.942252 
L 73.294185 251.855414 
L 73.632475 255.020678 
L 73.80162 151.2 
L 73.970765 230.964668 
L 74.13991 237.92825 
L 74.309055 257.236364 
L 74.4782 255.337205 
L 74.647345 255.020678 
L 74.81649 255.337205 
L 74.985635 256.919837 
L 75.154779 256.919837 
L 75.323924 257.236364 
L 75.493069 249.956255 
L 75.662214 255.970258 
L 75.831359 245.841411 
L 76.000504 255.653731 
L 76.169649 257.236364 
L 76.338794 255.020678 
L 76.507939 255.970258 
L 76.677084 243.942252 
L 76.846229 257.236364 
L 77.015374 249.323202 
L 77.184518 256.919837 
L 77.353663 255.653731 
L 77.522808 257.236364 
L 77.691953 256.919837 
L 77.861098 257.236364 
L 78.199388 250.272782 
L 78.368533 257.236364 
L 78.537678 255.970258 
L 78.875968 243.625726 
L 79.045113 255.337205 
L 79.214257 257.236364 
L 79.383402 255.020678 
L 79.552547 256.603311 
L 79.721692 224.950665 
L 79.890837 257.236364 
L 80.059982 233.496879 
L 80.229127 254.387626 
L 80.567417 256.919837 
L 80.905707 246.474464 
L 81.074851 256.603311 
L 81.243996 246.790991 
L 81.413141 257.236364 
L 81.582286 227.482877 
L 81.751431 252.488467 
L 81.920576 257.236364 
L 82.089721 252.488467 
L 82.258866 257.236364 
L 82.428011 257.236364 
L 82.597156 248.690149 
L 82.766301 257.236364 
L 83.10459 257.236364 
L 83.273735 256.919837 
L 83.44288 257.236364 
L 83.78117 256.286784 
L 83.950315 257.236364 
L 84.11946 257.236364 
L 84.288605 255.970258 
L 84.45775 256.603311 
L 84.626895 251.855414 
L 84.79604 224.950665 
L 84.965185 255.337205 
L 85.134329 246.474464 
L 85.303474 255.337205 
L 85.472619 253.438046 
L 85.810909 257.236364 
L 85.980054 225.583718 
L 86.149199 251.855414 
L 86.318344 256.603311 
L 86.487489 257.236364 
L 86.825779 257.236364 
L 87.164068 254.704152 
L 87.333213 257.236364 
L 87.502358 257.236364 
L 87.671503 250.905834 
L 87.840648 257.236364 
L 88.009793 255.970258 
L 88.178938 238.561303 
L 88.348083 241.726567 
L 88.517228 210.073921 
L 88.686373 251.538887 
L 89.193807 245.208358 
L 89.362952 257.236364 
L 89.701242 252.488467 
L 89.870387 257.236364 
L 90.039532 252.804993 
L 90.208677 254.704152 
L 90.377822 252.804993 
L 90.546967 255.020678 
L 90.716112 224.950665 
L 91.054401 257.236364 
L 91.223546 256.603311 
L 91.392691 256.286784 
L 91.561836 255.337205 
L 91.730981 257.236364 
L 91.900126 256.286784 
L 92.069271 242.676147 
L 92.238416 257.236364 
L 92.407561 255.970258 
L 92.576706 252.17194 
L 92.745851 257.236364 
L 92.914995 147.718209 
L 93.08414 257.236364 
L 93.253285 256.286784 
L 93.42243 257.236364 
L 93.76072 257.236364 
L 93.929865 231.59772 
L 94.09901 257.236364 
L 94.268155 256.919837 
L 94.4373 257.236364 
L 95.113879 257.236364 
L 95.452169 255.020678 
L 95.621314 257.236364 
L 95.790459 255.653731 
L 95.959604 257.236364 
L 96.467039 257.236364 
L 96.636184 256.919837 
L 96.805329 257.236364 
L 96.974473 257.236364 
L 97.143618 255.970258 
L 97.312763 257.236364 
L 99.680792 257.236364 
L 99.849937 255.970258 
L 100.019082 248.373623 
L 100.188227 256.603311 
L 100.357372 257.236364 
L 100.526517 246.157938 
L 100.695662 256.286784 
L 100.864806 257.236364 
L 101.033951 256.603311 
L 101.203096 257.236364 
L 101.372241 256.286784 
L 101.541386 257.236364 
L 101.710531 257.236364 
L 101.879676 255.337205 
L 102.048821 257.236364 
L 102.217966 256.603311 
L 102.387111 257.236364 
L 103.74027 257.236364 
L 103.909415 256.603311 
L 104.07856 257.236364 
L 104.247705 246.790991 
L 104.41685 255.970258 
L 104.585995 257.236364 
L 105.431719 257.236364 
L 105.600864 256.919837 
L 105.770009 256.919837 
L 105.939154 253.438046 
L 106.108299 256.286784 
L 106.277444 245.208358 
L 106.446589 256.603311 
L 106.615734 257.236364 
L 106.784878 255.653731 
L 106.954023 256.603311 
L 107.123168 256.286784 
L 107.292313 242.043094 
L 107.461458 257.236364 
L 107.630603 253.754573 
L 107.799748 257.236364 
L 108.138038 257.236364 
L 108.307183 255.337205 
L 108.476328 257.236364 
L 108.645473 256.919837 
L 108.814617 257.236364 
L 108.983762 225.583718 
L 109.152907 257.236364 
L 109.322052 252.488467 
L 109.660342 256.286784 
L 109.829487 255.653731 
L 109.998632 257.236364 
L 110.167777 213.872239 
L 110.336922 252.488467 
L 110.506067 252.488467 
L 110.675212 254.071099 
L 110.844356 257.236364 
L 111.013501 256.603311 
L 111.182646 257.236364 
L 111.351791 256.919837 
L 111.520936 256.919837 
L 111.690081 249.639729 
L 111.859226 256.919837 
L 112.028371 257.236364 
L 112.197516 254.704152 
L 112.366661 235.079512 
L 112.535806 257.236364 
L 112.70495 257.236364 
L 112.874095 244.575305 
L 113.04324 255.970258 
L 113.212385 257.236364 
L 113.38153 253.754573 
L 113.550675 256.286784 
L 113.71982 244.575305 
L 114.05811 257.236364 
L 114.227255 255.337205 
L 114.3964 256.919837 
L 114.565545 257.236364 
L 114.734689 250.905834 
L 114.903834 256.603311 
L 115.072979 257.236364 
L 115.242124 253.754573 
L 115.411269 254.704152 
L 115.580414 217.670556 
L 115.749559 250.272782 
L 115.918704 250.905834 
L 116.087849 255.653731 
L 116.256994 255.020678 
L 116.426139 255.337205 
L 116.595284 257.236364 
L 116.764428 256.603311 
L 116.933573 245.524885 
L 117.102718 256.603311 
L 117.271863 249.006676 
L 117.441008 249.323202 
L 117.610153 257.236364 
L 117.779298 256.919837 
L 117.948443 254.071099 
L 118.117588 254.071099 
L 118.286733 252.804993 
L 118.455878 249.639729 
L 118.625023 227.16635 
L 118.794167 252.17194 
L 118.963312 257.236364 
L 119.132457 257.236364 
L 119.301602 253.12152 
L 119.470747 214.505292 
L 119.639892 255.020678 
L 119.809037 256.286784 
L 119.978182 256.286784 
L 120.147327 256.919837 
L 120.316472 254.071099 
L 120.485617 257.236364 
L 120.654761 256.919837 
L 120.823906 257.236364 
L 120.993051 254.387626 
L 121.331341 257.236364 
L 122.853645 257.236364 
L 123.02279 256.603311 
L 123.191935 257.236364 
L 123.69937 257.236364 
L 123.868515 255.337205 
L 124.03766 257.236364 
L 124.206805 257.236364 
L 124.545095 256.286784 
L 124.714239 245.208358 
L 124.883384 256.603311 
L 125.052529 257.236364 
L 125.390819 257.236364 
L 125.559964 255.653731 
L 125.898254 256.919837 
L 126.067399 257.236364 
L 126.236544 253.12152 
L 126.405689 257.236364 
L 126.574833 255.653731 
L 126.743978 257.236364 
L 127.082268 257.236364 
L 127.420558 240.460461 
L 127.589703 252.488467 
L 127.927993 256.603311 
L 128.097138 252.804993 
L 128.266283 253.754573 
L 128.435428 251.855414 
L 128.604572 257.236364 
L 128.773717 257.236364 
L 128.942862 254.704152 
L 129.281152 257.236364 
L 130.126877 257.236364 
L 130.296022 256.919837 
L 130.465167 257.236364 
L 133.67892 257.236364 
L 133.848065 256.603311 
L 134.01721 257.236364 
L 134.186355 256.603311 
L 134.3555 255.337205 
L 134.524644 255.653731 
L 134.693789 257.236364 
L 134.862934 257.236364 
L 135.032079 255.653731 
L 135.201224 257.236364 
L 135.539514 257.236364 
L 135.708659 252.804993 
L 136.046949 249.639729 
L 136.216094 228.432456 
L 136.385239 257.236364 
L 136.554383 255.020678 
L 136.723528 257.236364 
L 136.892673 257.236364 
L 137.230963 256.286784 
L 137.400108 257.236364 
L 137.569253 256.919837 
L 137.738398 256.919837 
L 137.907543 257.236364 
L 138.076688 256.603311 
L 138.245833 257.236364 
L 138.414977 253.12152 
L 138.584122 256.286784 
L 138.753267 253.754573 
L 138.922412 253.754573 
L 139.091557 255.653731 
L 139.260702 253.754573 
L 139.429847 244.575305 
L 139.598992 244.891832 
L 139.768137 255.020678 
L 139.937282 253.754573 
L 140.106427 256.919837 
L 140.275572 256.603311 
L 140.444716 166.39327 
L 140.613861 244.258779 
L 140.783006 190.449281 
L 140.952151 192.34844 
L 141.121296 247.424043 
L 141.290441 253.12152 
L 141.459586 252.804993 
L 141.628731 249.323202 
L 141.797876 256.286784 
L 141.967021 256.286784 
L 142.136166 250.272782 
L 142.305311 250.905834 
L 142.474455 234.446459 
L 142.812745 255.653731 
L 142.98189 250.589308 
L 143.151035 224.634138 
L 143.32018 253.754573 
L 143.489325 255.653731 
L 143.65847 254.704152 
L 143.827615 255.653731 
L 143.99676 255.337205 
L 144.165905 247.74057 
L 144.33505 255.653731 
L 144.673339 256.603311 
L 144.842484 255.653731 
L 145.011629 251.855414 
L 145.349919 257.236364 
L 145.519064 256.286784 
L 145.688209 248.057096 
L 145.857354 257.236364 
L 146.026499 256.919837 
L 146.195644 257.236364 
L 146.364788 256.603311 
L 146.533933 257.236364 
L 146.703078 235.396038 
L 146.872223 257.236364 
L 147.041368 255.337205 
L 147.210513 255.970258 
L 147.379658 254.387626 
L 147.548803 255.970258 
L 147.717948 250.905834 
L 147.887093 257.236364 
L 148.056238 252.804993 
L 148.394527 257.236364 
L 148.732817 255.653731 
L 148.901962 232.230773 
L 149.071107 252.17194 
L 149.240252 255.020678 
L 149.409397 253.438046 
L 149.747687 234.446459 
L 150.085977 256.919837 
L 150.255122 217.037503 
L 150.424266 256.286784 
L 150.593411 244.575305 
L 150.762556 247.74057 
L 150.931701 246.157938 
L 151.100846 256.603311 
L 151.269991 249.006676 
L 151.439136 255.970258 
L 151.608281 232.863826 
L 151.777426 257.236364 
L 151.946571 205.959077 
L 152.115716 255.970258 
L 152.28486 254.071099 
L 152.454005 256.286784 
L 152.62315 247.107517 
L 152.792295 257.236364 
L 152.96144 247.424043 
L 153.130585 206.59213 
L 153.29973 250.905834 
L 153.63802 242.992673 
L 153.807165 250.272782 
L 153.97631 243.625726 
L 154.145455 256.603311 
L 154.314599 257.236364 
L 154.483744 257.236364 
L 154.652889 256.603311 
L 154.822034 257.236364 
L 154.991179 257.236364 
L 155.160324 255.020678 
L 155.329469 256.603311 
L 155.667759 251.855414 
L 155.836904 256.919837 
L 156.006049 255.020678 
L 156.175194 256.286784 
L 156.344338 256.286784 
L 156.513483 256.603311 
L 156.682628 248.690149 
L 156.851773 256.286784 
L 157.190063 246.474464 
L 157.359208 240.776988 
L 157.528353 247.424043 
L 157.697498 243.942252 
L 157.866643 257.236364 
L 158.204932 255.653731 
L 158.374077 256.603311 
L 158.543222 255.970258 
L 158.712367 257.236364 
L 158.881512 256.603311 
L 159.050657 253.12152 
L 159.219802 255.337205 
L 159.727237 256.919837 
L 159.896382 257.236364 
L 160.065527 256.603311 
L 160.234671 257.236364 
L 160.403816 256.919837 
L 160.742106 252.488467 
L 160.911251 255.970258 
L 161.080396 254.387626 
L 161.249541 255.653731 
L 161.418686 246.474464 
L 161.587831 246.790991 
L 161.756976 255.653731 
L 161.926121 255.653731 
L 162.095266 228.115929 
L 162.26441 256.286784 
L 162.433555 253.438046 
L 162.6027 257.236364 
L 162.771845 256.603311 
L 162.94099 252.804993 
L 163.110135 256.286784 
L 163.27928 255.020678 
L 163.448425 257.236364 
L 163.786715 257.236364 
L 163.95586 256.286784 
L 164.125005 257.236364 
L 164.294149 256.919837 
L 164.463294 257.236364 
L 164.632439 256.919837 
L 164.801584 257.236364 
L 164.970729 252.17194 
L 165.139874 255.020678 
L 165.309019 253.754573 
L 165.478164 248.690149 
L 165.647309 255.970258 
L 165.816454 248.057096 
L 165.985599 252.17194 
L 166.154743 253.12152 
L 166.323888 256.603311 
L 166.493033 250.589308 
L 166.662178 256.286784 
L 166.831323 256.919837 
L 167.000468 252.488467 
L 167.169613 257.236364 
L 167.338758 257.236364 
L 167.507903 256.603311 
L 167.846193 257.236364 
L 168.184482 257.236364 
L 168.353627 254.387626 
L 168.691917 257.236364 
L 168.861062 253.754573 
L 169.030207 255.337205 
L 169.199352 255.337205 
L 169.537642 230.015088 
L 169.706787 252.804993 
L 169.875932 256.919837 
L 170.045077 217.987083 
L 170.214221 255.653731 
L 170.383366 251.855414 
L 170.552511 256.286784 
L 170.721656 254.071099 
L 170.890801 249.639729 
L 171.059946 256.603311 
L 171.229091 230.964668 
L 171.398236 256.919837 
L 171.567381 253.12152 
L 171.736526 223.051506 
L 171.905671 250.905834 
L 172.074815 256.919837 
L 172.24396 252.804993 
L 172.58225 256.603311 
L 172.751395 257.236364 
L 172.92054 245.208358 
L 173.089685 256.286784 
L 173.25883 257.236364 
L 173.427975 256.603311 
L 173.59712 255.337205 
L 173.766265 250.272782 
L 173.93541 210.390448 
L 174.104554 249.006676 
L 174.273699 257.236364 
L 174.442844 255.653731 
L 174.611989 257.236364 
L 174.950279 256.286784 
L 175.119424 252.804993 
L 175.288569 254.387626 
L 175.457714 254.387626 
L 175.626859 256.919837 
L 175.965149 252.804993 
L 176.134293 256.603311 
L 176.303438 224.634138 
L 176.472583 251.538887 
L 176.641728 255.970258 
L 176.810873 255.653731 
L 176.980018 239.510882 
L 177.149163 240.776988 
L 177.318308 250.589308 
L 177.487453 248.057096 
L 177.656598 182.219593 
L 177.825743 253.438046 
L 177.994887 248.057096 
L 178.164032 255.020678 
L 178.333177 237.611723 
L 178.502322 249.323202 
L 178.671467 228.748982 
L 179.009757 256.919837 
L 179.178902 256.286784 
L 179.348047 256.286784 
L 179.517192 257.236364 
L 179.686337 248.057096 
L 179.855482 257.236364 
L 180.024626 257.236364 
L 180.193771 256.919837 
L 180.362916 257.236364 
L 180.532061 257.236364 
L 180.701206 256.919837 
L 180.870351 257.236364 
L 181.716076 257.236364 
L 181.885221 251.538887 
L 182.054365 257.236364 
L 182.5618 257.236364 
L 182.730945 242.35962 
L 182.90009 257.236364 
L 183.069235 257.236364 
L 183.23838 243.942252 
L 183.407525 257.236364 
L 183.745815 254.071099 
L 183.914959 257.236364 
L 184.084104 256.919837 
L 184.253249 257.236364 
L 184.422394 238.561303 
L 184.591539 254.071099 
L 184.760684 257.236364 
L 184.929829 255.337205 
L 185.098974 257.236364 
L 185.775554 257.236364 
L 185.944698 256.286784 
L 186.113843 257.236364 
L 186.282988 257.236364 
L 186.452133 256.286784 
L 186.621278 257.236364 
L 190.849901 257.236364 
L 191.019046 256.919837 
L 191.188191 257.236364 
L 192.20306 257.236364 
L 192.372205 256.919837 
L 192.54135 257.236364 
L 194.232799 257.236364 
L 194.401944 255.020678 
L 194.571089 257.236364 
L 195.585959 257.236364 
L 195.755104 256.603311 
L 195.924248 257.236364 
L 197.277408 257.236364 
L 197.615698 254.704152 
L 197.953987 256.603311 
L 198.123132 253.754573 
L 198.292277 257.236364 
L 198.461422 256.919837 
L 198.630567 234.446459 
L 198.799712 255.970258 
L 199.138002 252.17194 
L 199.307147 257.236364 
L 199.476292 230.331615 
L 199.645437 256.919837 
L 199.814581 254.704152 
L 199.983726 257.236364 
L 200.152871 253.12152 
L 200.322016 198.678969 
L 200.491161 254.704152 
L 200.660306 252.488467 
L 200.829451 255.970258 
L 200.998596 253.438046 
L 201.167741 232.230773 
L 201.336886 173.673379 
L 201.506031 256.286784 
L 201.675176 257.236364 
L 202.18261 257.236364 
L 202.351755 256.919837 
L 202.5209 254.071099 
L 202.690045 257.236364 
L 202.85919 257.236364 
L 203.028335 256.286784 
L 203.19748 257.236364 
L 203.366625 256.286784 
L 203.53577 257.236364 
L 204.381494 257.236364 
L 204.550639 252.804993 
L 204.719784 257.236364 
L 205.058074 257.236364 
L 205.227219 249.006676 
L 205.396364 251.538887 
L 205.565509 239.827408 
L 205.734653 257.236364 
L 206.072943 257.236364 
L 206.242088 255.653731 
L 206.411233 257.236364 
L 213.17703 257.236364 
L 213.346175 255.970258 
L 213.51532 252.17194 
L 213.684464 251.538887 
L 213.853609 228.748982 
L 214.022754 257.236364 
L 214.191899 215.454871 
L 214.361044 223.051506 
L 214.530189 200.261601 
L 214.699334 241.093514 
L 214.868479 200.578128 
L 215.037624 257.236364 
L 215.206769 257.236364 
L 215.375914 223.051506 
L 215.545059 257.236364 
L 216.898218 257.236364 
L 217.067363 256.603311 
L 217.236508 257.236364 
L 218.420522 257.236364 
L 218.589667 234.129932 
L 218.758812 97.707028 
L 219.097102 247.424043 
L 219.266247 181.58654 
L 219.604536 255.020678 
L 219.773681 174.306431 
L 220.111971 223.368033 
L 220.450261 162.911479 
L 220.619406 257.236364 
L 220.788551 257.236364 
L 220.957696 165.443691 
L 221.126841 257.236364 
L 221.295986 256.919837 
L 221.465131 256.919837 
L 221.634275 257.236364 
L 221.80342 256.919837 
L 221.972565 257.236364 
L 222.81829 257.236364 
L 222.987435 256.919837 
L 223.15658 255.020678 
L 223.325725 257.236364 
L 223.494869 255.020678 
L 223.664014 236.029091 
L 223.833159 237.611723 
L 224.002304 234.129932 
L 224.171449 257.236364 
L 224.340594 253.12152 
L 224.509739 255.337205 
L 224.678884 255.337205 
L 224.848029 231.914247 
L 225.017174 253.12152 
L 225.186319 257.236364 
L 225.862898 257.236364 
L 226.032043 256.919837 
L 226.201188 257.236364 
L 226.370333 254.071099 
L 226.539478 254.387626 
L 226.708623 257.236364 
L 227.385203 257.236364 
L 227.554347 255.020678 
L 227.723492 257.236364 
L 228.061782 257.236364 
L 228.230927 255.337205 
L 228.569217 255.337205 
L 228.738362 251.855414 
L 228.907507 253.12152 
L 229.076652 247.107517 
L 229.245797 253.754573 
L 229.584086 257.236364 
L 229.753231 257.236364 
L 229.922376 256.919837 
L 230.091521 257.236364 
L 232.12126 257.236364 
L 232.290405 253.438046 
L 232.45955 256.286784 
L 232.628695 257.236364 
L 234.150999 257.236364 
L 234.320144 255.970258 
L 234.489289 257.236364 
L 234.658434 238.877829 
L 234.996724 257.236364 
L 235.165869 255.970258 
L 235.335014 190.132754 
L 235.504158 181.270014 
L 235.673303 238.561303 
L 235.842448 219.569715 
L 236.011593 187.600543 
L 236.180738 221.7854 
L 236.349883 193.931072 
L 236.688173 238.877829 
L 236.857318 210.390448 
L 237.026463 234.129932 
L 237.195608 197.729389 
L 237.364752 243.309199 
L 237.533897 240.143935 
L 237.703042 239.510882 
L 237.872187 252.804993 
L 238.041332 242.35962 
L 238.210477 249.323202 
L 238.379622 248.690149 
L 238.548767 257.236364 
L 239.225347 257.236364 
L 239.394491 244.258779 
L 239.563636 246.157938 
L 239.732781 254.071099 
L 239.901926 246.157938 
L 240.071071 257.236364 
L 240.240216 256.286784 
L 240.409361 241.093514 
L 240.578506 257.236364 
L 242.269955 257.236364 
L 242.4391 241.410041 
L 242.608245 257.236364 
L 242.77739 236.662144 
L 242.946535 257.236364 
L 243.11568 231.914247 
L 243.284824 256.919837 
L 243.453969 257.236364 
L 243.623114 256.286784 
L 243.792259 253.12152 
L 243.961404 257.236364 
L 244.299694 257.236364 
L 244.468839 253.12152 
L 244.637984 257.236364 
L 244.807129 256.919837 
L 244.976274 257.236364 
L 245.145419 256.286784 
L 245.314563 257.236364 
L 247.851737 257.236364 
L 248.020882 255.337205 
L 248.190027 257.236364 
L 248.866607 257.236364 
L 249.035752 255.337205 
L 249.204896 257.236364 
L 249.881476 257.236364 
L 250.050621 255.337205 
L 250.219766 246.157938 
L 250.388911 257.236364 
L 250.727201 251.222361 
L 250.896346 257.236364 
L 252.75694 257.236364 
L 252.926085 256.603311 
L 253.09523 257.236364 
L 253.433519 257.236364 
L 253.602664 254.387626 
L 253.771809 257.236364 
L 255.801548 257.236364 
L 256.139838 256.286784 
L 256.308983 257.236364 
L 256.478128 256.603311 
L 256.647273 252.488467 
L 256.816418 251.855414 
L 256.985563 238.244776 
L 257.154707 253.438046 
L 257.323852 255.020678 
L 257.492997 242.043094 
L 257.662142 243.625726 
L 257.831287 257.236364 
L 258.000432 253.12152 
L 258.169577 227.799403 
L 258.338722 257.236364 
L 259.522736 257.236364 
L 259.691881 256.919837 
L 259.861026 257.236364 
L 260.030171 256.286784 
L 260.199316 257.236364 
L 260.706751 257.236364 
L 260.875896 235.712564 
L 261.045041 256.286784 
L 261.214185 257.236364 
L 261.38333 257.236364 
L 261.552475 256.919837 
L 261.72162 255.020678 
L 261.890765 254.704152 
L 262.05991 257.236364 
L 262.229055 257.236364 
L 262.567345 254.704152 
L 262.905635 256.919837 
L 263.074779 257.236364 
L 263.751359 257.236364 
L 263.920504 250.589308 
L 264.089649 257.236364 
L 264.258794 257.236364 
L 264.427939 250.905834 
L 264.597084 257.236364 
L 265.781098 257.236364 
L 265.950243 249.006676 
L 266.288533 257.236364 
L 266.457678 249.956255 
L 266.795968 257.236364 
L 266.965113 255.970258 
L 267.134257 257.236364 
L 267.303402 254.387626 
L 267.472547 257.236364 
L 267.810837 257.236364 
L 267.979982 256.603311 
L 268.149127 257.236364 
L 268.318272 257.236364 
L 268.487417 254.071099 
L 268.656562 242.992673 
L 268.825707 255.970258 
L 268.994851 255.020678 
L 269.163996 257.236364 
L 270.178866 257.236364 
L 270.348011 255.337205 
L 270.517156 257.236364 
L 273.054329 257.236364 
L 273.223474 256.919837 
L 273.392619 256.919837 
L 273.561764 257.236364 
L 273.730909 256.286784 
L 273.900054 257.236364 
L 274.069199 256.286784 
L 274.238344 252.17194 
L 274.407489 257.236364 
L 274.576634 249.323202 
L 274.745779 257.236364 
L 274.914923 256.286784 
L 275.084068 236.662144 
L 275.253213 253.754573 
L 275.422358 257.236364 
L 275.591503 248.057096 
L 275.760648 249.956255 
L 275.929793 248.690149 
L 276.098938 257.236364 
L 276.268083 238.561303 
L 276.437228 257.236364 
L 276.606373 257.236364 
L 276.944662 235.396038 
L 277.113807 184.435278 
L 277.282952 249.006676 
L 277.452097 167.975902 
L 277.621242 248.057096 
L 277.790387 228.748982 
L 277.959532 256.919837 
L 278.128677 257.236364 
L 278.297822 245.208358 
L 278.636112 241.726567 
L 278.805257 242.35962 
L 278.974401 253.754573 
L 279.143546 257.236364 
L 279.312691 257.236364 
L 279.481836 247.74057 
L 279.650981 216.087924 
L 279.989271 256.603311 
L 280.158416 224.317612 
L 280.327561 226.216771 
L 280.496706 252.488467 
L 280.665851 253.438046 
L 280.834995 257.236364 
L 281.00414 254.704152 
L 281.173285 257.236364 
L 281.34243 192.981493 
L 281.511575 256.603311 
L 281.849865 256.603311 
L 282.01901 252.804993 
L 282.188155 257.236364 
L 282.3573 257.236364 
L 282.526445 255.653731 
L 282.69559 257.236364 
L 282.864734 257.236364 
L 283.033879 246.157938 
L 283.203024 246.790991 
L 283.372169 255.653731 
L 283.541314 198.995495 
L 283.710459 202.16076 
L 283.879604 249.956255 
L 284.048749 182.536119 
L 284.217894 220.519294 
L 284.556184 225.267191 
L 284.725329 247.107517 
L 284.894473 214.505292 
L 285.063618 207.225183 
L 285.401908 246.157938 
L 285.571053 256.603311 
L 285.740198 255.337205 
L 286.078488 256.919837 
L 286.247633 257.236364 
L 286.416778 255.653731 
L 286.585923 257.236364 
L 287.939082 257.236364 
L 288.108227 256.919837 
L 288.446517 250.272782 
L 288.615662 256.603311 
L 288.784806 253.754573 
L 288.953951 257.236364 
L 289.123096 251.222361 
L 289.461386 257.236364 
L 289.630531 256.603311 
L 289.799676 174.939484 
L 289.968821 257.236364 
L 290.137966 233.180353 
L 290.307111 254.387626 
L 290.476256 232.230773 
L 290.645401 257.236364 
L 290.814545 227.16635 
L 290.98369 257.236364 
L 291.152835 59.407327 
L 291.32198 245.524885 
L 291.491125 246.157938 
L 291.66027 253.438046 
L 291.99856 218.936662 
L 292.167705 231.914247 
L 292.33685 215.771398 
L 292.67514 224.317612 
L 292.844284 256.286784 
L 293.013429 255.020678 
L 293.182574 249.006676 
L 293.351719 253.12152 
L 293.520864 249.323202 
L 293.859154 257.236364 
L 294.028299 256.919837 
L 294.197444 256.919837 
L 294.366589 257.236364 
L 294.535734 256.286784 
L 294.704878 257.236364 
L 294.874023 257.236364 
L 295.043168 256.919837 
L 295.381458 256.919837 
L 295.550603 257.236364 
L 295.888893 257.236364 
L 296.058038 254.704152 
L 296.227183 257.236364 
L 296.565473 257.236364 
L 296.734617 254.071099 
L 296.903762 248.373623 
L 297.072907 257.236364 
L 298.256922 257.236364 
L 298.426067 255.337205 
L 298.595212 257.236364 
L 298.764356 256.603311 
L 298.933501 255.020678 
L 299.102646 257.236364 
L 299.271791 256.286784 
L 299.440936 234.129932 
L 299.779226 257.236364 
L 299.948371 227.16635 
L 300.117516 222.101927 
L 300.286661 257.236364 
L 300.455806 235.712564 
L 300.62495 240.776988 
L 300.794095 207.225183 
L 300.96324 205.959077 
L 301.132385 249.956255 
L 301.30153 255.653731 
L 301.470675 239.827408 
L 301.63982 255.337205 
L 301.808965 257.236364 
L 301.97811 257.236364 
L 302.3164 243.309199 
L 302.485545 257.236364 
L 302.654689 253.438046 
L 302.823834 256.919837 
L 302.992979 256.286784 
L 303.162124 257.236364 
L 303.331269 254.071099 
L 303.500414 257.236364 
L 303.669559 255.970258 
L 304.007849 257.236364 
L 304.176994 257.236364 
L 304.346139 254.071099 
L 304.515284 253.438046 
L 304.684428 256.603311 
L 304.853573 251.855414 
L 305.191863 257.236364 
L 305.361008 257.236364 
L 305.530153 225.583718 
L 305.699298 254.704152 
L 305.868443 255.337205 
L 306.037588 238.244776 
L 306.206733 255.653731 
L 306.375878 254.387626 
L 306.545023 256.286784 
L 306.714167 255.653731 
L 307.052457 256.919837 
L 307.221602 247.74057 
L 307.390747 257.236364 
L 307.559892 256.603311 
L 307.729037 255.337205 
L 307.898182 257.236364 
L 308.067327 257.236364 
L 308.236472 255.020678 
L 308.405617 257.236364 
L 308.574761 256.919837 
L 308.743906 252.17194 
L 308.913051 257.236364 
L 309.082196 253.12152 
L 309.251341 242.676147 
L 309.420486 254.387626 
L 309.589631 257.236364 
L 309.927921 256.603311 
L 310.266211 257.236364 
L 310.435356 256.919837 
L 310.6045 257.236364 
L 310.773645 256.603311 
L 311.111935 257.236364 
L 311.61937 257.236364 
L 311.788515 255.337205 
L 311.95766 257.236364 
L 312.126805 247.74057 
L 312.29595 257.236364 
L 312.465095 257.236364 
L 312.634239 253.754573 
L 312.803384 257.236364 
L 312.972529 255.337205 
L 313.141674 243.309199 
L 313.310819 254.704152 
L 313.479964 256.603311 
L 313.818254 253.12152 
L 313.987399 237.92825 
L 314.156544 238.877829 
L 314.325689 247.74057 
L 314.494833 188.550122 
L 314.663978 239.827408 
L 314.833123 250.905834 
L 315.171413 255.020678 
L 315.340558 245.524885 
L 315.509703 229.382035 
L 315.678848 257.236364 
L 315.847993 257.236364 
L 316.017138 256.603311 
L 316.186283 257.236364 
L 316.355428 257.236364 
L 316.524572 241.410041 
L 316.693717 257.236364 
L 316.862862 257.236364 
L 317.032007 256.919837 
L 317.201152 257.236364 
L 317.539442 257.236364 
L 317.708587 256.603311 
L 317.877732 248.057096 
L 318.046877 256.603311 
L 318.216022 257.236364 
L 318.385167 254.704152 
L 318.554311 257.236364 
L 318.723456 257.236364 
L 318.892601 256.603311 
L 319.061746 257.236364 
L 319.230891 244.575305 
L 319.400036 221.7854 
L 319.569181 255.970258 
L 320.076616 249.006676 
L 320.245761 256.603311 
L 320.414905 249.323202 
L 320.58405 257.236364 
L 320.753195 257.236364 
L 320.92234 254.071099 
L 321.091485 256.919837 
L 321.26063 257.236364 
L 321.429775 256.286784 
L 321.59892 257.236364 
L 322.106355 257.236364 
L 322.2755 254.387626 
L 322.444644 254.071099 
L 322.613789 257.236364 
L 322.782934 252.488467 
L 322.952079 252.17194 
L 323.121224 250.905834 
L 323.290369 254.704152 
L 323.459514 252.488467 
L 323.628659 256.603311 
L 323.797804 257.236364 
L 323.966949 253.12152 
L 324.136094 252.488467 
L 324.305239 231.281194 
L 324.474383 255.653731 
L 324.643528 257.236364 
L 324.812673 255.653731 
L 324.981818 257.236364 
L 325.150963 257.236364 
L 325.320108 256.603311 
L 325.658398 257.236364 
L 327.518992 257.236364 
L 327.688137 256.919837 
L 327.857282 257.236364 
L 328.195572 257.236364 
L 328.533861 256.603311 
L 328.703006 257.236364 
L 329.210441 257.236364 
L 329.379586 256.603311 
L 329.548731 256.603311 
L 329.717876 237.611723 
L 329.887021 255.970258 
L 330.056166 250.589308 
L 330.225311 253.12152 
L 330.394455 240.460461 
L 330.732745 252.804993 
L 330.90189 233.813406 
L 331.071035 254.704152 
L 331.24018 249.323202 
L 331.409325 235.079512 
L 331.57847 256.603311 
L 331.91676 231.59772 
L 332.085905 249.639729 
L 332.25505 252.804993 
L 332.424194 251.222361 
L 332.593339 236.662144 
L 332.762484 257.236364 
L 332.931629 249.639729 
L 333.100774 256.286784 
L 333.269919 254.071099 
L 333.439064 245.841411 
L 333.608209 257.236364 
L 333.777354 250.272782 
L 333.946499 255.337205 
L 334.115644 231.59772 
L 334.284788 248.690149 
L 334.453933 250.589308 
L 334.623078 203.743392 
L 334.792223 257.236364 
L 335.130513 247.74057 
L 335.299658 257.236364 
L 335.468803 239.827408 
L 335.637948 256.603311 
L 335.807093 254.071099 
L 335.976238 257.236364 
L 336.145383 255.337205 
L 336.483672 257.236364 
L 336.652817 255.020678 
L 336.991107 257.236364 
L 337.160252 254.071099 
L 337.329397 246.157938 
L 337.498542 257.236364 
L 337.667687 235.079512 
L 338.005977 255.653731 
L 338.344266 249.323202 
L 338.513411 257.236364 
L 338.851701 244.575305 
L 339.020846 257.236364 
L 339.189991 256.919837 
L 339.528281 254.704152 
L 339.697426 257.236364 
L 339.866571 255.653731 
L 340.035716 247.424043 
L 340.374005 256.603311 
L 340.54315 257.236364 
L 340.712295 247.74057 
L 341.050585 256.603311 
L 341.21973 248.373623 
L 341.388875 257.236364 
L 341.55802 254.071099 
L 341.727165 257.236364 
L 341.89631 257.236364 
L 342.065455 255.337205 
L 342.234599 241.410041 
L 342.403744 255.653731 
L 342.572889 257.236364 
L 342.742034 253.438046 
L 342.911179 257.236364 
L 343.080324 257.236364 
L 343.249469 250.272782 
L 343.418614 257.236364 
L 343.587759 255.337205 
L 343.756904 257.236364 
L 343.926049 245.841411 
L 344.095194 254.704152 
L 344.264338 257.236364 
L 344.433483 257.236364 
L 344.602628 241.410041 
L 344.771773 256.603311 
L 345.110063 256.603311 
L 345.279208 257.236364 
L 345.448353 255.337205 
L 345.617498 257.236364 
L 345.786643 254.071099 
L 345.955788 257.236364 
L 346.294077 257.236364 
L 346.463222 256.919837 
L 346.632367 257.236364 
L 346.801512 257.236364 
L 346.970657 256.603311 
L 347.139802 257.236364 
L 347.308947 256.919837 
L 347.478092 257.236364 
L 347.647237 257.236364 
L 347.816382 255.970258 
L 347.985527 257.236364 
L 348.154671 257.236364 
L 348.323816 256.286784 
L 348.492961 257.236364 
L 348.662106 257.236364 
L 348.831251 255.020678 
L 349.000396 256.919837 
L 349.169541 255.970258 
L 349.338686 257.236364 
L 349.676976 250.905834 
L 349.846121 254.704152 
L 350.015266 255.337205 
L 350.18441 254.071099 
L 350.353555 254.704152 
L 350.5227 256.603311 
L 350.691845 255.653731 
L 350.86099 256.603311 
L 351.030135 252.488467 
L 351.19928 241.410041 
L 351.368425 244.575305 
L 351.53757 253.12152 
L 351.706715 252.488467 
L 351.87586 256.603311 
L 352.045005 255.970258 
L 352.214149 257.236364 
L 352.383294 254.704152 
L 352.552439 255.970258 
L 352.721584 256.286784 
L 352.890729 257.236364 
L 353.736454 257.236364 
L 353.905599 256.603311 
L 354.074743 257.236364 
L 354.243888 257.236364 
L 354.413033 256.603311 
L 354.582178 247.74057 
L 355.089613 257.236364 
L 355.258758 257.236364 
L 355.427903 256.603311 
L 355.597048 257.236364 
L 355.766193 257.236364 
L 355.935338 256.603311 
L 356.104482 255.337205 
L 356.273627 257.236364 
L 356.611917 257.236364 
L 356.781062 254.387626 
L 356.950207 257.236364 
L 357.119352 253.754573 
L 357.288497 257.236364 
L 357.457642 257.236364 
L 357.626787 256.603311 
L 357.795932 257.236364 
L 357.965077 256.603311 
L 358.134221 257.236364 
L 358.303366 256.603311 
L 358.641656 257.236364 
L 359.149091 257.236364 
L 359.318236 255.653731 
L 359.656526 256.919837 
L 359.825671 248.373623 
L 359.994815 257.236364 
L 360.16396 257.236364 
L 360.333105 246.790991 
L 360.50225 247.74057 
L 360.671395 253.754573 
L 360.84054 255.020678 
L 361.17883 235.712564 
L 361.347975 257.236364 
L 361.51712 235.712564 
L 361.686265 256.603311 
L 361.85541 257.236364 
L 362.024554 255.653731 
L 362.193699 250.905834 
L 362.362844 257.236364 
L 362.531989 256.919837 
L 362.701134 256.286784 
L 362.870279 254.071099 
L 363.039424 257.236364 
L 363.208569 255.653731 
L 363.377714 241.410041 
L 363.546859 255.020678 
L 363.716004 256.603311 
L 363.885149 254.071099 
L 364.054293 253.438046 
L 364.223438 257.236364 
L 364.561728 250.589308 
L 364.730873 257.236364 
L 364.900018 252.17194 
L 365.069163 256.286784 
L 365.238308 244.891832 
L 365.407453 257.236364 
L 365.576598 255.653731 
L 365.745743 257.236364 
L 365.914887 255.653731 
L 366.084032 257.236364 
L 366.253177 256.286784 
L 366.422322 181.270014 
L 366.591467 255.653731 
L 366.760612 257.236364 
L 366.929757 254.387626 
L 367.098902 248.690149 
L 367.268047 257.236364 
L 367.437192 257.236364 
L 367.606337 235.079512 
L 367.775482 257.236364 
L 367.944626 257.236364 
L 368.113771 253.438046 
L 368.282916 256.286784 
L 368.452061 246.790991 
L 368.621206 255.337205 
L 368.959496 257.236364 
L 369.128641 257.236364 
L 369.297786 254.071099 
L 369.466931 257.236364 
L 369.805221 257.236364 
L 369.974365 250.905834 
L 370.14351 257.236364 
L 370.312655 255.020678 
L 370.4818 130.62578 
L 370.650945 253.438046 
L 370.82009 256.286784 
L 370.989235 255.020678 
L 371.15838 250.905834 
L 371.49667 257.236364 
L 371.665815 231.914247 
L 371.834959 230.648141 
L 372.004104 219.569715 
L 372.342394 255.653731 
L 372.511539 237.92825 
L 372.680684 255.653731 
L 372.849829 256.286784 
L 373.018974 253.438046 
L 373.188119 247.74057 
L 373.357264 257.236364 
L 373.526409 253.754573 
L 373.695554 257.236364 
L 373.864698 247.74057 
L 374.033843 255.337205 
L 374.202988 257.236364 
L 374.372133 253.438046 
L 374.541278 256.603311 
L 374.710423 257.236364 
L 375.217858 257.236364 
L 375.387003 256.919837 
L 375.556148 257.236364 
L 375.725293 257.236364 
L 375.894437 253.12152 
L 376.063582 244.575305 
L 376.232727 257.236364 
L 376.401872 252.804993 
L 376.571017 254.387626 
L 376.740162 257.236364 
L 377.078452 256.603311 
L 377.247597 255.337205 
L 377.416742 249.956255 
L 377.585887 257.236364 
L 377.755032 247.74057 
L 377.924176 257.236364 
L 378.093321 247.74057 
L 378.262466 257.236364 
L 379.615626 257.236364 
L 379.78477 256.603311 
L 379.953915 253.438046 
L 380.12306 257.236364 
L 380.292205 257.236364 
L 380.46135 249.323202 
L 380.630495 255.653731 
L 380.79964 257.236364 
L 380.968785 256.919837 
L 381.13793 257.236364 
L 381.307075 255.337205 
L 381.47622 257.236364 
L 381.645365 257.236364 
L 381.814509 255.970258 
L 381.983654 257.236364 
L 382.152799 256.603311 
L 382.321944 257.236364 
L 382.491089 255.337205 
L 382.660234 257.236364 
L 383.336814 257.236364 
L 383.505959 255.653731 
L 383.675104 257.236364 
L 384.013393 257.236364 
L 384.182538 246.474464 
L 384.351683 257.236364 
L 384.520828 254.071099 
L 384.689973 257.236364 
L 384.859118 257.236364 
L 385.028263 252.488467 
L 385.197408 257.236364 
L 385.366553 255.020678 
L 385.535698 257.236364 
L 386.381422 257.236364 
L 386.550567 252.804993 
L 386.719712 257.236364 
L 387.227147 257.236364 
L 387.396292 254.704152 
L 387.565437 256.919837 
L 387.734581 250.272782 
L 387.903726 257.236364 
L 388.072871 257.236364 
L 388.242016 255.337205 
L 388.411161 243.942252 
L 388.580306 247.107517 
L 388.749451 257.236364 
L 388.918596 256.603311 
L 389.087741 243.942252 
L 389.256886 253.438046 
L 389.595176 257.236364 
L 389.76432 253.12152 
L 389.933465 256.919837 
L 390.10261 257.236364 
L 390.271755 255.653731 
L 390.4409 255.337205 
L 390.610045 257.236364 
L 390.948335 257.236364 
L 391.11748 254.387626 
L 391.286625 257.236364 
L 391.45577 257.236364 
L 391.624914 256.919837 
L 391.794059 239.510882 
L 391.963204 256.603311 
L 392.132349 257.236364 
L 392.301494 257.236364 
L 392.470639 241.410041 
L 392.639784 257.236364 
L 392.978074 257.236364 
L 393.147219 254.704152 
L 393.316364 242.992673 
L 393.316364 242.992673 
" style="fill:none;stroke:#008fd5;stroke-width:4;"/>
   </g>
   <g id="patch_3">
    <path d="M 34.56 267.84 
L 34.56 34.56 
" style="fill:none;stroke:#f0f0f0;stroke-linecap:square;stroke-linejoin:miter;stroke-width:3;"/>
   </g>
   <g id="patch_4">
    <path d="M 410.4 267.84 
L 410.4 34.56 
" style="fill:none;stroke:#f0f0f0;stroke-linecap:square;stroke-linejoin:miter;stroke-width:3;"/>
   </g>
   <g id="patch_5">
    <path d="M 34.56 267.84 
L 410.4 267.84 
" style="fill:none;stroke:#f0f0f0;stroke-linecap:square;stroke-linejoin:miter;stroke-width:3;"/>
   </g>
   <g id="patch_6">
    <path d="M 34.56 34.56 
L 410.4 34.56 
" style="fill:none;stroke:#f0f0f0;stroke-linecap:square;stroke-linejoin:miter;stroke-width:3;"/>
   </g>
   <g id="text_16">
    <!-- YTD Rainfall in inches -->
    <g transform="translate(113.564025 28.56)scale(0.2016 -0.2016)">
     <defs>
      <path d="M -0.203125 72.90625 
L 10.40625 72.90625 
L 30.609375 42.921875 
L 50.6875 72.90625 
L 61.28125 72.90625 
L 35.5 34.71875 
L 35.5 0 
L 25.59375 0 
L 25.59375 34.71875 
z
" id="DejaVuSans-89"/>
      <path d="M -0.296875 72.90625 
L 61.375 72.90625 
L 61.375 64.59375 
L 35.5 64.59375 
L 35.5 0 
L 25.59375 0 
L 25.59375 64.59375 
L -0.296875 64.59375 
z
" id="DejaVuSans-84"/>
      <path d="M 19.671875 64.796875 
L 19.671875 8.109375 
L 31.59375 8.109375 
Q 46.6875 8.109375 53.6875 14.9375 
Q 60.6875 21.78125 60.6875 36.53125 
Q 60.6875 51.171875 53.6875 57.984375 
Q 46.6875 64.796875 31.59375 64.796875 
z
M 9.8125 72.90625 
L 30.078125 72.90625 
Q 51.265625 72.90625 61.171875 64.09375 
Q 71.09375 55.28125 71.09375 36.53125 
Q 71.09375 17.671875 61.125 8.828125 
Q 51.171875 0 30.078125 0 
L 9.8125 0 
z
" id="DejaVuSans-68"/>
      <path id="DejaVuSans-32"/>
      <path d="M 44.390625 34.1875 
Q 47.5625 33.109375 50.5625 29.59375 
Q 53.5625 26.078125 56.59375 19.921875 
L 66.609375 0 
L 56 0 
L 46.6875 18.703125 
Q 43.0625 26.03125 39.671875 28.421875 
Q 36.28125 30.8125 30.421875 30.8125 
L 19.671875 30.8125 
L 19.671875 0 
L 9.8125 0 
L 9.8125 72.90625 
L 32.078125 72.90625 
Q 44.578125 72.90625 50.734375 67.671875 
Q 56.890625 62.453125 56.890625 51.90625 
Q 56.890625 45.015625 53.6875 40.46875 
Q 50.484375 35.9375 44.390625 34.1875 
z
M 19.671875 64.796875 
L 19.671875 38.921875 
L 32.078125 38.921875 
Q 39.203125 38.921875 42.84375 42.21875 
Q 46.484375 45.515625 46.484375 51.90625 
Q 46.484375 58.296875 42.84375 61.546875 
Q 39.203125 64.796875 32.078125 64.796875 
z
" id="DejaVuSans-82"/>
      <path d="M 37.109375 75.984375 
L 37.109375 68.5 
L 28.515625 68.5 
Q 23.6875 68.5 21.796875 66.546875 
Q 19.921875 64.59375 19.921875 59.515625 
L 19.921875 54.6875 
L 34.71875 54.6875 
L 34.71875 47.703125 
L 19.921875 47.703125 
L 19.921875 0 
L 10.890625 0 
L 10.890625 47.703125 
L 2.296875 47.703125 
L 2.296875 54.6875 
L 10.890625 54.6875 
L 10.890625 58.5 
Q 10.890625 67.625 15.140625 71.796875 
Q 19.390625 75.984375 28.609375 75.984375 
z
" id="DejaVuSans-102"/>
      <path d="M 9.421875 75.984375 
L 18.40625 75.984375 
L 18.40625 0 
L 9.421875 0 
z
" id="DejaVuSans-108"/>
     </defs>
     <use xlink:href="#DejaVuSans-89"/>
     <use x="61.083984" xlink:href="#DejaVuSans-84"/>
     <use x="122.167969" xlink:href="#DejaVuSans-68"/>
     <use x="199.169922" xlink:href="#DejaVuSans-32"/>
     <use x="230.957031" xlink:href="#DejaVuSans-82"/>
     <use x="298.189453" xlink:href="#DejaVuSans-97"/>
     <use x="359.46875" xlink:href="#DejaVuSans-105"/>
     <use x="387.251953" xlink:href="#DejaVuSans-110"/>
     <use x="450.630859" xlink:href="#DejaVuSans-102"/>
     <use x="485.835938" xlink:href="#DejaVuSans-97"/>
     <use x="547.115234" xlink:href="#DejaVuSans-108"/>
     <use x="574.898438" xlink:href="#DejaVuSans-108"/>
     <use x="602.681641" xlink:href="#DejaVuSans-32"/>
     <use x="634.46875" xlink:href="#DejaVuSans-105"/>
     <use x="662.251953" xlink:href="#DejaVuSans-110"/>
     <use x="725.630859" xlink:href="#DejaVuSans-32"/>
     <use x="757.417969" xlink:href="#DejaVuSans-105"/>
     <use x="785.201172" xlink:href="#DejaVuSans-110"/>
     <use x="848.580078" xlink:href="#DejaVuSans-99"/>
     <use x="903.560547" xlink:href="#DejaVuSans-104"/>
     <use x="966.939453" xlink:href="#DejaVuSans-101"/>
     <use x="1028.462891" xlink:href="#DejaVuSans-115"/>
    </g>
   </g>
   <g id="legend_1">
    <g id="patch_7">
     <path d="M 267.60875 163.574688 
L 400.6 163.574688 
Q 403.4 163.574688 403.4 160.774688 
L 403.4 141.625313 
Q 403.4 138.825312 400.6 138.825312 
L 267.60875 138.825312 
Q 264.80875 138.825312 264.80875 141.625313 
L 264.80875 160.774688 
Q 264.80875 163.574688 267.60875 163.574688 
z
" style="fill:#f0f0f0;opacity:0.8;stroke:#cccccc;stroke-linejoin:miter;stroke-width:0.5;"/>
    </g>
    <g id="line2d_28">
     <path d="M 270.40875 150.163125 
L 298.40875 150.163125 
" style="fill:none;stroke:#008fd5;stroke-width:4;"/>
    </g>
    <g id="line2d_29"/>
    <g id="text_17">
     <!-- precipitation -->
     <g transform="translate(309.60875 155.063125)scale(0.14 -0.14)">
      <defs>
       <path d="M 18.109375 8.203125 
L 18.109375 -20.796875 
L 9.078125 -20.796875 
L 9.078125 54.6875 
L 18.109375 54.6875 
L 18.109375 46.390625 
Q 20.953125 51.265625 25.265625 53.625 
Q 29.59375 56 35.59375 56 
Q 45.5625 56 51.78125 48.09375 
Q 58.015625 40.1875 58.015625 27.296875 
Q 58.015625 14.40625 51.78125 6.484375 
Q 45.5625 -1.421875 35.59375 -1.421875 
Q 29.59375 -1.421875 25.265625 0.953125 
Q 20.953125 3.328125 18.109375 8.203125 
z
M 48.6875 27.296875 
Q 48.6875 37.203125 44.609375 42.84375 
Q 40.53125 48.484375 33.40625 48.484375 
Q 26.265625 48.484375 22.1875 42.84375 
Q 18.109375 37.203125 18.109375 27.296875 
Q 18.109375 17.390625 22.1875 11.75 
Q 26.265625 6.109375 33.40625 6.109375 
Q 40.53125 6.109375 44.609375 11.75 
Q 48.6875 17.390625 48.6875 27.296875 
z
" id="DejaVuSans-112"/>
       <path d="M 41.109375 46.296875 
Q 39.59375 47.171875 37.8125 47.578125 
Q 36.03125 48 33.890625 48 
Q 26.265625 48 22.1875 43.046875 
Q 18.109375 38.09375 18.109375 28.8125 
L 18.109375 0 
L 9.078125 0 
L 9.078125 54.6875 
L 18.109375 54.6875 
L 18.109375 46.1875 
Q 20.953125 51.171875 25.484375 53.578125 
Q 30.03125 56 36.53125 56 
Q 37.453125 56 38.578125 55.875 
Q 39.703125 55.765625 41.0625 55.515625 
z
" id="DejaVuSans-114"/>
       <path d="M 30.609375 48.390625 
Q 23.390625 48.390625 19.1875 42.75 
Q 14.984375 37.109375 14.984375 27.296875 
Q 14.984375 17.484375 19.15625 11.84375 
Q 23.34375 6.203125 30.609375 6.203125 
Q 37.796875 6.203125 41.984375 11.859375 
Q 46.1875 17.53125 46.1875 27.296875 
Q 46.1875 37.015625 41.984375 42.703125 
Q 37.796875 48.390625 30.609375 48.390625 
z
M 30.609375 56 
Q 42.328125 56 49.015625 48.375 
Q 55.71875 40.765625 55.71875 27.296875 
Q 55.71875 13.875 49.015625 6.21875 
Q 42.328125 -1.421875 30.609375 -1.421875 
Q 18.84375 -1.421875 12.171875 6.21875 
Q 5.515625 13.875 5.515625 27.296875 
Q 5.515625 40.765625 12.171875 48.375 
Q 18.84375 56 30.609375 56 
z
" id="DejaVuSans-111"/>
      </defs>
      <use xlink:href="#DejaVuSans-112"/>
      <use x="63.476562" xlink:href="#DejaVuSans-114"/>
      <use x="102.339844" xlink:href="#DejaVuSans-101"/>
      <use x="163.863281" xlink:href="#DejaVuSans-99"/>
      <use x="218.84375" xlink:href="#DejaVuSans-105"/>
      <use x="246.626953" xlink:href="#DejaVuSans-112"/>
      <use x="310.103516" xlink:href="#DejaVuSans-105"/>
      <use x="337.886719" xlink:href="#DejaVuSans-116"/>
      <use x="377.095703" xlink:href="#DejaVuSans-97"/>
      <use x="438.375" xlink:href="#DejaVuSans-116"/>
      <use x="477.583984" xlink:href="#DejaVuSans-105"/>
      <use x="505.367188" xlink:href="#DejaVuSans-111"/>
      <use x="566.548828" xlink:href="#DejaVuSans-110"/>
     </g>
    </g>
   </g>
  </g>
 </g>
 <defs>
  <clipPath id="pa6c53d64b9">
   <rect height="233.28" width="375.84" x="34.56" y="34.56"/>
  </clipPath>
 </defs>
</svg>
